<svg width="258" height="22" viewBox="0 0 258 22" fill="none" xmlns="http://www.w3.org/2000/svg">
<path d="M18.016 21H11.296L10.656 17.928H7.104L6.432 21H0L4.128 1.128H13.888L18.016 21ZM10.176 13.8L8.96 7.144H8.832L7.584 13.8H10.176ZM35.0233 7.528C35.0233 8.808 34.8099 9.832 34.3833 10.6C33.9779 11.3467 33.3379 12.008 32.4633 12.584L35.4393 21H28.3673L26.3833 14.152H25.8713V21H19.3113V1.128H27.7913C30.2659 1.128 32.0899 1.65067 33.2633 2.696C34.4366 3.72 35.0233 5.33067 35.0233 7.528ZM26.5433 10.248C27.0339 10.248 27.3753 10.1093 27.5673 9.832C27.7806 9.53333 27.8873 9.02133 27.8873 8.296C27.8873 7.57067 27.7806 7.06933 27.5673 6.792C27.3539 6.51467 27.0233 6.376 26.5753 6.376H25.7433V10.248H26.5433ZM58.9745 21H52.9265V11.528H52.7665L50.8785 21H45.2785L43.4225 11.528H43.2625V21H37.2785L38.0465 1.128H46.5585L48.0625 10.12H48.3505L49.8225 1.128H58.2385L58.9745 21ZM78.2035 21H71.4835L70.8435 17.928H67.2915L66.6195 21H60.1875L64.3155 1.128H74.0755L78.2035 21ZM70.3635 13.8L69.1475 7.144H69.0195L67.7715 13.8H70.3635ZM88.2668 16.104C88.6508 16.104 89.1628 16.04 89.8028 15.912V13.992H88.2028V9.576H95.7548V21H90.9228L90.4428 19.976H90.3148C89.2054 20.872 87.8934 21.32 86.3788 21.32C81.3868 21.32 78.8908 17.9493 78.8908 11.208C78.8908 7.83733 79.5628 5.26667 80.9068 3.496C82.2721 1.704 84.5654 0.807999 87.7868 0.807999C90.1761 0.807999 92.4374 1.13867 94.5708 1.8L93.5148 7.816C91.1254 7.15467 89.4081 6.824 88.3628 6.824C87.3388 6.824 86.6561 7.16533 86.3148 7.848C85.9948 8.53067 85.8348 9.69333 85.8348 11.336C85.8348 12.9787 85.9841 14.184 86.2828 14.952C86.6028 15.72 87.2641 16.104 88.2668 16.104ZM111.108 21H98.4363V1.128H111.556L111.108 6.408H105.284V8.808H110.372V13.416H105.284V16.136H111.556L111.108 21ZM130.37 10.632C130.37 17.544 127.213 21 120.898 21H113.186V1.128H121.058C124.45 1.128 126.85 1.94933 128.258 3.592C129.666 5.21333 130.37 7.56 130.37 10.632ZM120.802 16.008C121.89 16.008 122.594 15.6347 122.914 14.888C123.234 14.1413 123.394 12.904 123.394 11.176C123.394 9.42667 123.213 8.18933 122.85 7.464C122.509 6.71733 121.784 6.344 120.674 6.344H120.002V16.008H120.802ZM149.527 10.632C149.527 17.544 146.369 21 140.055 21H132.343V1.128H140.215C143.607 1.128 146.007 1.94933 147.415 3.592C148.823 5.21333 149.527 7.56 149.527 10.632ZM139.959 16.008C141.047 16.008 141.751 15.6347 142.071 14.888C142.391 14.1413 142.551 12.904 142.551 11.176C142.551 9.42667 142.369 8.18933 142.007 7.464C141.665 6.71733 140.94 6.344 139.831 6.344H139.159V16.008H139.959ZM150.859 10.952C150.859 7.38933 151.563 4.808 152.971 3.208C154.4 1.608 156.736 0.807999 159.979 0.807999C163.243 0.807999 165.568 1.59733 166.955 3.176C168.363 4.75467 169.067 7.32533 169.067 10.888C169.067 14.4293 168.341 17.0533 166.891 18.76C165.461 20.4667 163.136 21.32 159.915 21.32C156.715 21.32 154.4 20.4773 152.971 18.792C151.563 17.1067 150.859 14.4933 150.859 10.952ZM161.771 7.144C161.493 6.58933 160.896 6.312 159.979 6.312C159.061 6.312 158.475 6.57867 158.219 7.112C157.963 7.64533 157.835 8.78667 157.835 10.536V11.944C157.835 13.736 157.973 14.8987 158.251 15.432C158.528 15.9653 159.136 16.232 160.075 16.232C161.013 16.232 161.6 15.976 161.835 15.464C162.069 14.952 162.187 13.8107 162.187 12.04V10.568C162.187 8.81867 162.048 7.67733 161.771 7.144ZM187.863 21H181.335L177.303 13.16H177.079V21H170.999V1.128H177.751L181.527 9.224H181.719V1.128H187.863V21ZM195.378 2.248C197.895 1.288 200.327 0.807999 202.674 0.807999C205.042 0.807999 206.813 1.34133 207.986 2.408C209.159 3.47467 209.746 4.936 209.746 6.792C209.746 8.648 209.383 10.2053 208.658 11.464C207.954 12.7227 206.77 14.216 205.106 15.944V16.072H209.81V21H196.146L195.826 17.544C196.039 17.3307 196.519 16.8613 197.266 16.136C198.013 15.4107 198.514 14.92 198.77 14.664C199.026 14.408 199.431 13.9813 199.986 13.384C200.562 12.7867 200.957 12.328 201.17 12.008C201.405 11.688 201.735 11.2187 202.162 10.6C202.589 9.96 202.802 9.24533 202.802 8.456C202.802 7.432 202.301 6.92 201.298 6.92C200.359 6.92 198.738 7.22933 196.434 7.848L195.378 2.248ZM220.458 11.4V10.792C220.458 8.21067 220.234 6.74933 219.786 6.408C219.551 6.23733 219.274 6.152 218.954 6.152C218.634 6.152 218.389 6.19467 218.218 6.28C218.047 6.344 217.909 6.49333 217.802 6.728C217.695 6.94133 217.61 7.144 217.546 7.336C217.418 7.72 217.354 8.40267 217.354 9.384V11.4C217.354 13.1707 217.407 14.3867 217.514 15.048C217.642 15.688 217.813 16.104 218.026 16.296C218.261 16.4667 218.581 16.552 218.986 16.552C219.669 16.552 220.085 16.2 220.234 15.496C220.383 14.792 220.458 13.4267 220.458 11.4ZM225.354 3.528C225.93 4.46667 226.325 5.52267 226.538 6.696C226.751 7.86933 226.858 9.34133 226.858 11.112C226.858 12.8613 226.751 14.3227 226.538 15.496C226.325 16.6693 225.93 17.7147 225.354 18.632C224.287 20.424 222.133 21.32 218.89 21.32C215.669 21.32 213.514 20.424 212.426 18.632C211.85 17.7147 211.445 16.6693 211.21 15.496C210.997 14.3227 210.89 12.8613 210.89 11.112C210.89 9.36267 210.997 7.90133 211.21 6.728C211.423 5.53333 211.818 4.46667 212.394 3.528C213.503 1.71467 215.669 0.807999 218.89 0.807999C222.111 0.807999 224.266 1.71467 225.354 3.528ZM227.628 2.248C230.145 1.288 232.577 0.807999 234.924 0.807999C237.292 0.807999 239.063 1.34133 240.236 2.408C241.409 3.47467 241.996 4.936 241.996 6.792C241.996 8.648 241.633 10.2053 240.908 11.464C240.204 12.7227 239.02 14.216 237.356 15.944V16.072H242.06V21H228.396L228.076 17.544C228.289 17.3307 228.769 16.8613 229.516 16.136C230.263 15.4107 230.764 14.92 231.02 14.664C231.276 14.408 231.681 13.9813 232.236 13.384C232.812 12.7867 233.207 12.328 233.42 12.008C233.655 11.688 233.985 11.2187 234.412 10.6C234.839 9.96 235.052 9.24533 235.052 8.456C235.052 7.432 234.551 6.92 233.548 6.92C232.609 6.92 230.988 7.22933 228.684 7.848L227.628 2.248ZM242.628 2.44C244.889 1.352 247.204 0.807999 249.572 0.807999C251.961 0.807999 253.764 1.29867 254.98 2.28C256.217 3.26133 256.836 4.63733 256.836 6.408C256.836 7.38933 256.655 8.2 256.292 8.84C255.929 9.48 255.332 10.0347 254.5 10.504V10.632C256.249 11.4 257.124 12.9147 257.124 15.176C257.124 17.1387 256.484 18.6533 255.204 19.72C253.924 20.7867 252.057 21.32 249.604 21.32C248.431 21.32 247.385 21.224 246.468 21.032C245.572 20.84 244.441 20.488 243.076 19.976L244.484 15.048C246.788 15.752 248.249 16.104 248.868 16.104C249.7 16.104 250.116 15.6453 250.116 14.728C250.116 13.7893 249.625 13.32 248.644 13.32H245.828V8.84H248.612C249.337 8.84 249.7 8.41333 249.7 7.56C249.7 6.70667 249.273 6.28 248.42 6.28C247.823 6.28 246.372 6.67467 244.068 7.464L242.628 2.44Z" fill="#F86600"/>
</svg>
